
<svg width="120" height="120" viewBox="0 0 24 24" fill="none" xmlns="http://www.w3.org/2000/svg">
  <path d="M19 8C20.6569 8 22 6.65685 22 5C22 3.34315 20.6569 2 19 2C17.3431 2 16 3.34315 16 5C16 6.65685 17.3431 8 19 8Z" fill="black"/>
  <path d="M21 10H18.87C17.5 10 16.27 9.22 15.76 8C15.59 7.57 15.22 7 14.6 7H9.4C8.78 7 8.41 7.57 8.24 8C7.73 9.22 6.5 10 5.13 10H3C2.18 10 1.41 10.2 0.84 10.58C0.3 10.94 0 11.44 0 12V14C0 14.55 0.45 15 1 15H2V20C2 21.1 2.9 22 4 22H18C19.1 22 20 21.1 20 20V15H21C21.55 15 22 14.55 22 14V12C22 11.44 21.7 10.94 21.16 10.58C20.59 10.2 19.82 10 19 10H21Z" fill="black"/>
  <circle cx="7" cy="15" r="1.5" fill="white"/>
  <circle cx="15" cy="15" r="1.5" fill="white"/>
</svg>
